<svg width="231" height="212" viewBox="0 0 231 212" fill="none" xmlns="http://www.w3.org/2000/svg">
<path id="Vector" d="M40.5587 201.948C40.41 202.283 40.0755 202.468 39.7409 202.468C39.6108 202.468 39.4806 202.45 39.3691 202.394C37.7148 201.632 36.0977 200.833 34.5177 199.996C34.0716 199.755 33.9044 199.216 34.146 198.77C34.3876 198.323 34.9267 198.156 35.3728 198.398C36.897 199.216 38.4955 200.015 40.1126 200.758C40.5587 200.963 40.7632 201.502 40.5587 201.948ZM37.3988 61.4255C37.7148 61.0352 37.6405 60.459 37.2501 60.1616C36.8598 59.8456 36.2836 59.9199 35.9862 60.3103C34.8523 61.7229 33.7557 63.1356 32.6962 64.5483C32.3988 64.9386 32.4731 65.5148 32.8635 65.8122C33.0307 65.9423 33.2166 65.9981 33.4025 65.9981C33.6813 65.9981 33.9415 65.868 34.1274 65.6449C35.1869 64.2509 36.2836 62.8382 37.3988 61.4441V61.4255ZM30.8002 195.74C29.2946 194.792 27.8262 193.788 26.4321 192.766C26.0232 192.468 25.4656 192.561 25.1682 192.952C24.8708 193.361 24.9637 193.918 25.354 194.216C26.7853 195.275 28.2909 196.297 29.8337 197.264C29.9824 197.357 30.1497 197.394 30.3169 197.394C30.6143 197.394 30.9117 197.245 31.079 196.967C31.3393 196.539 31.2277 195.981 30.8002 195.721V195.74ZM24.6105 77.4295C24.2016 77.1507 23.6254 77.2808 23.3652 77.6897C22.3614 79.2139 21.3949 80.7195 20.4655 82.2251C20.2053 82.6526 20.3354 83.2102 20.7629 83.4705C20.9116 83.5634 21.0789 83.6006 21.2462 83.6006C21.5436 83.6006 21.841 83.4519 22.0083 83.1731C22.9377 81.6861 23.8856 80.1805 24.8708 78.6749C25.1496 78.2659 25.0381 77.6897 24.6105 77.4295ZM18.4952 185.851C18.142 185.498 17.5658 185.479 17.2127 185.851C16.8595 186.204 16.8409 186.781 17.2127 187.134C18.458 188.416 19.7778 189.662 21.1532 190.851C21.3205 191 21.5436 191.074 21.748 191.074C22.0083 191.074 22.2499 190.963 22.4358 190.758C22.7704 190.387 22.7146 189.81 22.3429 189.476C21.0045 188.323 19.722 187.096 18.5138 185.851H18.4952ZM49.9641 43.9903C48.7373 45.3287 47.5477 46.6484 46.3581 47.9681C46.0235 48.3399 46.0607 48.9161 46.4324 49.2506C46.5997 49.3993 46.8228 49.4737 47.0272 49.4737C47.2689 49.4737 47.5291 49.3622 47.6964 49.1763C48.8674 47.8566 50.057 46.5368 51.2652 45.2171C51.5998 44.8454 51.5812 44.2692 51.2094 43.9346C50.8377 43.6 50.2615 43.6186 49.9269 43.9903H49.9641ZM60.243 207.301C58.4958 206.929 56.7671 206.502 55.0757 206.056C54.5924 205.907 54.0905 206.223 53.9604 206.688C53.8303 207.171 54.1277 207.673 54.611 207.785C56.321 208.249 58.0869 208.658 59.8527 209.048C59.9085 209.048 59.9828 209.067 60.0386 209.067C60.4475 209.067 60.8378 208.77 60.9308 208.361C61.0423 207.877 60.7263 207.394 60.243 207.283V207.301ZM44.109 51.9273C43.7372 51.6113 43.161 51.6484 42.8264 52.0202C41.6554 53.3957 40.503 54.7712 39.3691 56.1281C39.0531 56.5184 39.1089 57.076 39.4806 57.4106C39.6479 57.5407 39.8524 57.6151 40.0569 57.6151C40.3171 57.6151 40.5773 57.5035 40.7632 57.2805C41.8785 55.9236 43.0309 54.5667 44.2019 53.1912C44.5179 52.8195 44.4807 52.2433 44.109 51.9087V51.9273ZM66.2097 28.637C65.8565 28.2838 65.2803 28.2652 64.9271 28.6184C63.626 29.8823 62.362 31.1277 61.0981 32.3731C60.7449 32.7262 60.7449 33.3025 61.0981 33.6556C61.2653 33.8415 61.507 33.9158 61.73 33.9158C61.9531 33.9158 62.1947 33.8229 62.362 33.6556C63.6074 32.4103 64.8713 31.1649 66.1725 29.9195C66.5256 29.5663 66.5442 28.9901 66.1911 28.637H66.2097ZM50.0012 204.569C48.2912 204.011 46.6183 203.416 45.0012 202.803C44.5365 202.617 44.016 202.859 43.8302 203.323C43.6443 203.788 43.8859 204.309 44.3506 204.495C45.9863 205.126 47.6964 205.74 49.4436 206.298C49.5366 206.335 49.6295 206.335 49.7224 206.335C50.1128 206.335 50.4659 206.093 50.5775 205.703C50.7262 205.219 50.4659 204.718 50.0012 204.569ZM54.9456 41.3137C56.1538 40.0312 57.3805 38.7486 58.6445 37.4661C58.9977 37.1129 58.9791 36.5367 58.6445 36.1835C58.2913 35.8304 57.7151 35.849 57.3619 36.1835C56.098 37.4847 54.8526 38.7672 53.6444 40.0498C53.3098 40.4215 53.3098 40.9791 53.6816 41.3323C53.8489 41.4996 54.0719 41.5739 54.295 41.5739C54.5366 41.5739 54.7783 41.481 54.9456 41.2951V41.3137ZM0.892727 143.657C1.39459 143.657 1.78493 143.267 1.80352 142.765C1.80352 141.018 1.89646 139.252 2.02657 137.486C2.06375 136.984 1.692 136.557 1.19013 136.52C0.706851 136.501 0.260748 136.854 0.223573 137.356C0.0748717 139.159 0.000521224 140.981 -0.0180664 142.765C-0.0180664 143.267 0.372274 143.676 0.87414 143.676L0.892727 143.657ZM2.50985 153.286C2.24962 151.576 2.06375 149.81 1.95222 148.044C1.91505 147.542 1.48753 147.17 0.985666 147.207C0.4838 147.245 0.112047 147.672 0.149222 148.174C0.260748 149.977 0.465212 151.799 0.725439 153.564C0.799789 154.011 1.17154 154.345 1.61765 154.345C1.65482 154.345 1.71058 154.345 1.74776 154.345C2.24962 154.271 2.5842 153.806 2.50985 153.323V153.286ZM1.59906 132.988C1.59906 132.988 1.692 132.988 1.72917 132.988C2.17527 132.988 2.56561 132.653 2.62138 132.207C2.86302 130.497 3.16042 128.731 3.51358 126.984C3.60652 126.501 3.29053 126.018 2.80725 125.925C2.32397 125.832 1.8407 126.148 1.74776 126.631C1.39459 128.415 1.0786 130.2 0.836965 131.947C0.762614 132.449 1.11578 132.895 1.59906 132.969V132.988ZM3.60652 122.486C3.60652 122.486 3.75522 122.523 3.82957 122.523C4.2385 122.523 4.59167 122.244 4.70319 121.854C5.13071 120.181 5.63257 118.452 6.17161 116.761C6.32032 116.278 6.06009 115.776 5.57681 115.627C5.09353 115.478 4.59167 115.739 4.44297 116.222C3.90392 117.951 3.40206 119.698 2.95595 121.408C2.82584 121.891 3.12324 122.393 3.60652 122.504V122.486ZM27.1199 74.6413C27.3987 74.6413 27.6961 74.5112 27.8634 74.251C28.8671 72.8197 29.8894 71.3699 30.9489 69.9015C31.2463 69.4926 31.1534 68.9349 30.7445 68.6375C30.3355 68.3401 29.7779 68.4331 29.4805 68.842C28.4024 70.3104 27.3801 71.7603 26.3764 73.2287C26.0976 73.6376 26.1905 74.1952 26.5994 74.4926C26.7481 74.6042 26.934 74.6599 27.1199 74.6599V74.6413ZM11.8594 177.691C11.5806 177.282 11.023 177.171 10.5955 177.45C10.1865 177.728 10.075 178.286 10.3538 178.713C11.3576 180.2 12.4542 181.669 13.5881 183.063C13.774 183.286 14.0342 183.398 14.2944 183.398C14.4989 183.398 14.7033 183.323 14.8706 183.193C15.261 182.877 15.3167 182.301 15.0007 181.929C13.8855 180.572 12.826 179.141 11.8594 177.71V177.691ZM10.7256 102.337C10.8557 102.393 10.9672 102.411 11.0973 102.411C11.4505 102.411 11.7665 102.207 11.9152 101.891C12.6401 100.311 13.4022 98.7123 14.2015 97.0952C14.4245 96.6491 14.2386 96.1101 13.7925 95.887C13.3464 95.664 12.8074 95.8498 12.5843 96.2959C11.7665 97.9316 10.9858 99.5488 10.2609 101.147C10.0564 101.593 10.2609 102.132 10.707 102.337H10.7256ZM3.51358 158.472C3.40206 157.988 2.91878 157.672 2.4355 157.802C1.95222 157.914 1.65482 158.397 1.76635 158.88C2.17527 160.646 2.67714 162.412 3.23477 164.104C3.36488 164.475 3.71805 164.717 4.0898 164.717C4.18274 164.717 4.27568 164.717 4.36861 164.68C4.8333 164.531 5.09353 164.011 4.94483 163.546C4.40579 161.892 3.92251 160.182 3.51358 158.472ZM9.31292 105.59C8.84823 105.404 8.32778 105.627 8.1419 106.073C7.45416 107.764 6.80359 109.437 6.1902 111.092C6.02291 111.556 6.26455 112.077 6.72924 112.244C6.82218 112.281 6.93371 112.3 7.04523 112.3C7.41699 112.3 7.77015 112.077 7.90026 111.705C8.49507 110.069 9.12705 108.415 9.81479 106.742C10.0007 106.277 9.77761 105.757 9.33151 105.571L9.31292 105.59ZM6.80359 168.472C6.59913 168.007 6.07868 167.803 5.61399 168.007C5.14929 168.211 4.94483 168.732 5.14929 169.197C5.87421 170.851 6.67348 172.487 7.5471 174.085C7.71439 174.383 8.01179 174.55 8.34637 174.55C8.49507 174.55 8.64377 174.513 8.77388 174.438C9.21999 174.197 9.36869 173.658 9.12705 173.212C8.2906 171.669 7.50992 170.089 6.80359 168.49V168.472ZM18.9599 86.5002C18.5324 86.24 17.9748 86.3887 17.7145 86.8348C16.8037 88.4148 15.9301 89.9761 15.0751 91.5189C14.8334 91.965 15.0007 92.5041 15.4468 92.7457C15.577 92.82 15.7257 92.8572 15.8744 92.8572C16.1903 92.8572 16.5063 92.6899 16.6736 92.3925C17.5101 90.8497 18.3837 89.307 19.2759 87.7456C19.5361 87.3181 19.3874 86.7605 18.9413 86.5188L18.9599 86.5002ZM193.163 179.754C191.602 180.628 190.04 181.464 188.479 182.301C188.033 182.543 187.866 183.082 188.107 183.528C188.275 183.825 188.591 184.011 188.907 184.011C189.055 184.011 189.204 183.974 189.334 183.899C190.895 183.063 192.475 182.208 194.055 181.334C194.483 181.093 194.65 180.535 194.409 180.108C194.167 179.68 193.609 179.513 193.182 179.754H193.163ZM174.129 189.401C172.494 190.145 170.877 190.87 169.259 191.576C168.795 191.781 168.59 192.301 168.795 192.766C168.943 193.1 169.278 193.305 169.631 193.305C169.743 193.305 169.873 193.286 169.984 193.23C171.62 192.524 173.256 191.781 174.892 191.037C175.338 190.833 175.542 190.294 175.338 189.847C175.133 189.401 174.594 189.197 174.148 189.401H174.129ZM183.739 184.754C182.141 185.572 180.542 186.353 178.962 187.115C178.516 187.338 178.33 187.877 178.535 188.323C178.683 188.639 179.018 188.825 179.353 188.825C179.483 188.825 179.613 188.788 179.743 188.732C181.341 187.952 182.94 187.171 184.557 186.353C185.003 186.13 185.17 185.591 184.947 185.145C184.724 184.699 184.185 184.513 183.739 184.754ZM144.296 200.907C142.586 201.446 140.876 201.948 139.185 202.431C138.701 202.561 138.423 203.063 138.571 203.547C138.683 203.937 139.055 204.197 139.445 204.197C139.519 204.197 139.612 204.197 139.687 204.16C141.397 203.677 143.107 203.156 144.835 202.617C145.319 202.468 145.579 201.967 145.43 201.483C145.281 201 144.78 200.74 144.296 200.889V200.907ZM164.352 193.658C162.698 194.346 161.044 194.996 159.389 195.628C158.925 195.814 158.683 196.335 158.869 196.799C158.999 197.152 159.352 197.375 159.705 197.375C159.817 197.375 159.928 197.357 160.04 197.32C161.694 196.688 163.367 196.019 165.021 195.331C165.486 195.145 165.709 194.606 165.505 194.16C165.319 193.695 164.78 193.472 164.334 193.677L164.352 193.658ZM154.408 197.506C152.716 198.119 151.044 198.695 149.371 199.271C148.906 199.439 148.646 199.941 148.795 200.424C148.925 200.796 149.278 201.037 149.65 201.037C149.742 201.037 149.835 201.037 149.947 200.981C151.638 200.405 153.33 199.829 155.021 199.216C155.486 199.048 155.728 198.528 155.56 198.063C155.393 197.598 154.873 197.357 154.408 197.524V197.506ZM202.401 174.401C200.858 175.331 199.334 176.223 197.81 177.115C197.383 177.357 197.234 177.914 197.475 178.342C197.643 178.639 197.94 178.788 198.256 178.788C198.405 178.788 198.572 178.751 198.702 178.658C200.245 177.765 201.788 176.855 203.331 175.925C203.758 175.665 203.888 175.107 203.647 174.68C203.386 174.252 202.829 174.122 202.401 174.364V174.401ZM220.283 162.747C218.814 163.769 217.346 164.773 215.877 165.776C215.468 166.055 215.357 166.613 215.636 167.04C215.803 167.301 216.1 167.431 216.379 167.431C216.546 167.431 216.732 167.375 216.881 167.282C218.349 166.278 219.836 165.275 221.305 164.234C221.714 163.955 221.807 163.379 221.528 162.97C221.249 162.561 220.673 162.468 220.264 162.747H220.283ZM230.19 156.669C229.892 156.278 229.316 156.185 228.926 156.483C227.495 157.561 226.063 158.602 224.632 159.643C224.223 159.94 224.13 160.498 224.428 160.907C224.613 161.148 224.874 161.278 225.152 161.278C225.338 161.278 225.524 161.223 225.692 161.111C227.123 160.07 228.573 159.011 230.004 157.933C230.394 157.635 230.487 157.059 230.19 156.669ZM211.435 168.732C209.929 169.717 208.442 170.665 206.937 171.613C206.509 171.873 206.379 172.431 206.658 172.858C206.825 173.137 207.122 173.286 207.42 173.286C207.587 173.286 207.754 173.249 207.903 173.156C209.409 172.208 210.914 171.241 212.42 170.256C212.847 169.977 212.959 169.42 212.68 169.011C212.401 168.602 211.844 168.472 211.435 168.751V168.732ZM81.34 209.959C79.5556 209.885 77.7897 209.773 76.0239 209.625C75.5035 209.55 75.0945 209.959 75.0574 210.443C75.0202 210.944 75.3919 211.372 75.8752 211.409C77.641 211.558 79.444 211.669 81.247 211.744H81.2842C81.7675 211.744 82.1578 211.372 82.195 210.889C82.2136 210.387 81.8233 209.959 81.34 209.941V209.959ZM90.0018 8.4508C90.3922 8.1348 90.4293 7.55859 90.1133 7.16825C89.7974 6.7965 89.2211 6.74073 88.8308 7.05672C87.4553 8.22774 86.0984 9.38018 84.7601 10.5326C84.3884 10.8672 84.3326 11.4248 84.6672 11.8152C84.8531 12.0196 85.0947 12.1311 85.3549 12.1311C85.5594 12.1311 85.7824 12.0568 85.9497 11.9081C87.288 10.7557 88.6449 9.60323 90.0204 8.43221L90.0018 8.4508ZM80.708 14.0643C79.3511 15.2539 78.0128 16.4435 76.7117 17.6331C76.3399 17.9677 76.3027 18.5439 76.6373 18.9156C76.8232 19.1201 77.0648 19.213 77.3065 19.213C77.5295 19.213 77.734 19.1387 77.9199 18.99C79.221 17.8004 80.5593 16.6294 81.9162 15.4397C82.288 15.1052 82.3251 14.5475 81.9906 14.1572C81.656 13.7854 81.0798 13.7483 80.708 14.0829V14.0643ZM134.036 203.825C132.307 204.271 130.579 204.699 128.869 205.108C128.385 205.219 128.088 205.703 128.199 206.186C128.292 206.595 128.664 206.892 129.073 206.892C129.147 206.892 129.203 206.892 129.277 206.874C131.006 206.465 132.753 206.037 134.501 205.591C134.984 205.461 135.281 204.978 135.151 204.495C135.021 204.011 134.519 203.714 134.055 203.844L134.036 203.825ZM91.9721 210.034C90.5966 210.071 89.2397 210.089 87.9014 210.089H86.656C86.1914 210.015 85.7453 210.48 85.7453 210.982C85.7453 211.483 86.1356 211.892 86.6375 211.892H87.9014C89.2583 211.892 90.6338 211.892 92.0279 211.837C92.5297 211.837 92.9201 211.409 92.9015 210.907C92.9015 210.405 92.4926 210.034 91.9721 210.034ZM70.745 209.067C68.9606 208.844 67.2134 208.584 65.4847 208.305C65.0015 208.231 64.5182 208.547 64.4438 209.048C64.3509 209.55 64.6855 210.015 65.1873 210.089C66.9346 210.387 68.719 210.647 70.522 210.87C70.5592 210.87 70.5963 210.87 70.6335 210.87C71.0796 210.87 71.47 210.536 71.5257 210.071C71.5815 209.569 71.2283 209.123 70.745 209.067ZM72.7525 21.2391C71.4328 22.4659 70.1131 23.6927 68.8305 24.9009C68.4773 25.254 68.4588 25.8116 68.7933 26.1834C68.9792 26.3693 69.2023 26.4622 69.4439 26.4622C69.667 26.4622 69.89 26.3879 70.0573 26.2206C71.3398 25.0124 72.641 23.7856 73.9607 22.5774C74.3325 22.2428 74.351 21.6666 74.0165 21.2948C73.6819 20.9231 73.1057 20.9045 72.7339 21.2391H72.7525ZM113.181 208.119C111.415 208.379 109.649 208.621 107.902 208.844C107.4 208.9 107.047 209.346 107.121 209.848C107.177 210.312 107.567 210.647 108.013 210.647C108.05 210.647 108.088 210.647 108.125 210.647C109.891 210.443 111.656 210.201 113.459 209.922C113.961 209.848 114.296 209.383 114.222 208.9C114.147 208.398 113.701 208.063 113.199 208.138L113.181 208.119ZM123.664 206.242C121.917 206.595 120.17 206.948 118.422 207.245C117.939 207.338 117.604 207.803 117.697 208.286C117.772 208.732 118.162 209.03 118.59 209.03C118.645 209.03 118.701 209.03 118.757 209.03C120.504 208.714 122.27 208.379 124.036 208.008C124.519 207.915 124.835 207.431 124.742 206.929C124.649 206.446 124.166 206.13 123.683 206.223L123.664 206.242ZM98.3662 0.346594C98.0503 -0.0437457 97.4741 -0.0995151 97.1023 0.216475C95.7082 1.35032 94.3141 2.48417 92.9573 3.61801C92.5669 3.934 92.5112 4.51022 92.8457 4.90056C93.0316 5.12361 93.2918 5.23514 93.5521 5.23514C93.7565 5.23514 93.961 5.16078 94.1283 5.03067C95.4852 3.89683 96.8607 2.78157 98.2547 1.64772C98.6451 1.33173 98.7008 0.755516 98.3848 0.383763L98.3662 0.346594ZM102.586 209.402C100.801 209.569 99.0354 209.699 97.2696 209.792C96.7677 209.829 96.396 210.257 96.4146 210.74C96.4517 211.223 96.8421 211.595 97.3068 211.595H97.3625C99.1283 211.483 100.931 211.353 102.734 211.186C103.236 211.149 103.589 210.703 103.552 210.201C103.515 209.699 103.069 209.364 102.567 209.383L102.586 209.402Z" fill="#FF5722"/>
</svg>
