<svg width="36" height="33" viewBox="0 0 36 33" fill="none" xmlns="http://www.w3.org/2000/svg">
<path id="Vector" d="M28.1845 8.59913C31.902 5.62511 35.9356 1.33137 35.285 0.532102C34.6344 -0.267166 29.56 2.70685 25.8425 5.69946C25.5079 5.97827 25.1733 6.2385 24.8573 6.49873C24.2068 6.3872 22.8499 6.16415 21.1212 5.88534C21.1398 5.88534 21.177 5.88534 21.1956 5.88534L22.1993 5.08607C22.3294 4.99313 22.3294 4.78867 22.1993 4.65855L21.4186 3.692C21.3071 3.5433 21.1212 3.50612 20.9911 3.61765L19.9874 4.41691C19.9874 4.41691 19.913 4.52844 19.8944 4.60279L18.7234 5.53217C17.255 5.29053 15.6565 5.03031 14.0765 4.77008L15.0617 3.9894C15.1918 3.89646 15.1918 3.692 15.0617 3.56188L14.281 2.59533C14.1694 2.44663 13.9836 2.40945 13.8535 2.52098L12.8497 3.32025C12.8497 3.32025 12.7754 3.43177 12.7568 3.50612L11.6229 4.39833C7.60801 3.74776 4.24366 3.22731 4.13213 3.26448C3.85331 3.35742 2.42206 4.5842 2.42206 4.5842C2.0689 4.86302 1.82726 5.12325 1.84585 5.16042C1.88303 5.1976 2.29195 4.91878 2.62653 4.65855L10.0058 7.35376C9.74559 7.5954 9.59689 7.81845 9.65265 7.8928C9.727 7.98574 10.0616 7.81845 10.3962 7.53964L10.4333 7.50246L11.8832 8.0415C11.6415 8.26455 11.4928 8.48761 11.5486 8.56196C11.6229 8.6549 11.9575 8.48761 12.2921 8.20879L13.6118 8.67348L14.4111 9.2497C14.1137 9.50992 13.9092 9.77015 13.965 9.8445C14.0393 9.93744 14.3739 9.77015 14.7085 9.49134H14.7271L16.307 10.6066C16.0096 10.8668 15.8052 11.1271 15.8795 11.2014C15.9539 11.2943 16.2884 11.127 16.623 10.8482L18.0728 11.8891C15.6007 13.9152 14.6341 14.733 12.794 16.2201C10.9352 17.7071 9.24373 19.2684 7.88683 20.6625C5.69349 20.3279 1.36257 19.603 1.36257 19.603L0.247314 20.3465L4.94998 23.9897C4.68976 24.3429 4.48529 24.6217 4.37376 24.8447C3.64885 25.5139 3.22133 25.96 3.27709 26.0343C3.33286 26.1087 3.85332 25.8113 4.634 25.2536C4.87564 25.1793 5.21021 25.012 5.63772 24.8075L8.18423 30.2537L9.16938 29.3429C9.16938 29.3429 9.4296 24.6588 9.57831 22.5213C11.1768 21.5175 12.9984 20.3279 14.8944 19.0082C17.1992 17.168 18.2401 16.3873 20.3777 14.7145L21.0655 16.3502C20.7123 16.6476 20.4892 16.9264 20.5636 17.0193C20.6194 17.0937 20.9167 16.9636 21.2513 16.7219L22.0134 18.5249H21.9948C21.6417 18.8223 21.4186 19.1197 21.493 19.1941C21.5487 19.2684 21.8647 19.1383 22.1807 18.8967L22.5711 19.7889L22.7569 21.183C22.4038 21.4618 22.1807 21.7592 22.2551 21.8521C22.3108 21.9265 22.5525 21.8335 22.8313 21.6291L23.0358 23.1718H22.9986C22.6454 23.4692 22.4224 23.7666 22.4967 23.8596C22.5525 23.9339 22.8127 23.8224 23.0915 23.6179L24.0952 31.4062C23.7793 31.685 23.4075 32.0195 23.4261 32.0567C23.4633 32.0939 23.7607 31.908 24.1138 31.6292C24.1138 31.6292 25.638 30.4954 25.7681 30.2537C25.8239 30.1608 26.0469 26.7592 26.3072 22.7071L27.441 21.8149C27.441 21.8149 27.5897 21.8149 27.6455 21.7778L28.6492 20.9785C28.7793 20.8856 28.7793 20.6811 28.6492 20.551L27.8685 19.5844C27.757 19.4357 27.5711 19.3985 27.441 19.5101L26.4559 20.2908C26.5488 18.6922 26.6417 17.0937 26.7347 15.5881L27.9057 14.6587C27.9057 14.6587 28.0544 14.6587 28.1102 14.6215L29.1139 13.8223C29.244 13.7293 29.244 13.5249 29.1139 13.3947L28.3332 12.4282C28.2217 12.2795 28.0358 12.2423 27.9057 12.3538L26.902 13.1531C26.902 13.1531 26.902 13.1903 26.8648 13.2275C26.9763 11.4988 27.0507 10.1419 27.0879 9.47275C27.4038 9.21252 27.7384 8.9523 28.0916 8.67348L28.1845 8.59913Z" fill="#FF5722"/>
</svg>
