<svg width="40" height="34" viewBox="0 0 40 34" fill="none" xmlns="http://www.w3.org/2000/svg">
<path id="Vector" d="M11.2948 8.68042C6.8709 6.9146 1.14588 5.5577 0.755544 6.50567C0.383791 7.47223 5.47683 10.3905 9.90068 12.1563C10.3096 12.3236 10.6999 12.4723 11.0903 12.621C11.3133 13.2344 11.7966 14.5355 12.41 16.1712C12.3914 16.1712 12.3914 16.1341 12.3543 16.1155L11.1646 15.6508C11.0159 15.595 10.8487 15.688 10.7743 15.8552L10.3096 17.0077C10.2353 17.175 10.3096 17.3608 10.4583 17.4166L11.6479 17.8813C11.6479 17.8813 11.778 17.8813 11.8524 17.8813L13.2279 18.4389C13.7483 19.833 14.3059 21.3572 14.8635 22.8442L13.6926 22.3795C13.5439 22.3237 13.3765 22.4167 13.3022 22.584L12.8375 23.7364C12.7632 23.9037 12.8375 24.0896 12.9862 24.1453L14.1758 24.61C14.1758 24.61 14.306 24.61 14.3803 24.61L15.7186 25.1491C17.1499 28.9595 18.358 32.138 18.4324 32.2124C18.6369 32.4168 20.4213 33.0488 20.4213 33.0488C20.8302 33.2161 21.1833 33.309 21.2019 33.2533C21.2019 33.2161 20.7744 32.993 20.3841 32.8258L19.083 25.0933C19.4176 25.2048 19.6964 25.2234 19.7149 25.1491C19.7521 25.0375 19.4547 24.8331 19.0458 24.6658H19.0086L18.7484 23.123C19.0644 23.2159 19.3246 23.2531 19.3618 23.1602C19.399 23.0487 19.1016 22.8442 18.6927 22.6769L18.451 21.2828L18.5625 20.3163C18.9343 20.4464 19.2688 20.5022 19.306 20.3906C19.3432 20.2791 19.0458 20.0746 18.6368 19.9074H18.6183L18.8227 17.9557C19.1945 18.0858 19.5105 18.1229 19.5477 18.03C19.5848 17.9185 19.2874 17.714 18.8785 17.5467H18.8599L19.0458 15.7623C22.0384 16.9147 23.228 17.3423 25.4214 18.2159C27.6333 19.0895 29.8266 19.7772 31.7225 20.2791C32.5032 22.3423 34.0274 26.4874 34.0274 26.4874L35.2356 27.0822L36.072 21.1899C36.4996 21.2457 36.8527 21.2642 37.1129 21.2642C38.0609 21.5616 38.6557 21.7104 38.6929 21.636C38.7301 21.5431 38.2096 21.2457 37.3546 20.8367C37.1687 20.6694 36.8713 20.4464 36.4624 20.1862L39.9197 15.279L38.6371 14.8887C38.6371 14.8887 34.4363 16.9891 32.5218 17.9185C30.8675 17.0263 28.9158 16.0411 26.8526 15.0374C24.1016 13.9407 22.912 13.4389 20.4027 12.3979L21.4808 10.9853C21.8897 11.1526 22.2614 11.2083 22.2986 11.0968C22.3358 11.0039 22.0756 10.818 21.7038 10.6507L22.8934 9.08935H22.912C23.321 9.25664 23.6927 9.3124 23.7299 9.20088C23.7671 9.10794 23.5068 8.90347 23.1351 8.75477L23.7299 7.97409L24.8637 7.11906C25.2726 7.28635 25.6444 7.34211 25.6816 7.23059C25.7187 7.13765 25.5143 6.98895 25.2169 6.84025L26.4623 5.91087H26.4994C26.9083 6.09674 27.2801 6.13392 27.3173 6.04098C27.3545 5.94804 27.1314 5.78075 26.8154 5.63205L33.0795 0.910794C33.4698 1.05949 33.953 1.2082 33.9716 1.17102C33.9902 1.11526 33.6743 0.947969 33.2653 0.78068C33.2653 0.78068 31.5553 0 31.2579 0C31.1463 0 28.0794 1.48701 24.4362 3.27142L23.0979 2.73238C23.0979 2.73238 23.0235 2.60227 22.9678 2.58368L21.7781 2.11899C21.6294 2.06323 21.4622 2.15617 21.3878 2.32345L20.9231 3.47589C20.8488 3.64318 20.9232 3.82905 21.0719 3.88481L22.2428 4.34951C20.8116 5.05584 19.3618 5.76217 18.0235 6.43132L16.648 5.87369C16.648 5.87369 16.5736 5.74358 16.5179 5.72499L15.3282 5.2603C15.1795 5.20454 15.0123 5.29747 14.9379 5.46476L14.4732 6.6172C14.3989 6.78448 14.4733 6.97036 14.622 7.02612L15.8115 7.49082C15.8115 7.49082 15.8673 7.49082 15.8859 7.49082C14.3431 8.25291 13.1163 8.8663 12.5215 9.1637C12.1312 9.015 11.7408 8.84771 11.3319 8.68042H11.2948Z" fill="#FF5722"/>
</svg>
