<svg width="40" height="33" viewBox="0 0 40 33" fill="none" xmlns="http://www.w3.org/2000/svg">
<path id="Vector" d="M9.52749 22.8355C5.3081 25.0474 0.531086 28.4675 0.995777 29.3969C1.47906 30.3077 7.01815 28.356 11.2561 26.1441C11.6465 25.9396 12.0183 25.7538 12.39 25.5493C13.0034 25.7723 14.3045 26.2556 15.9402 26.869C15.9217 26.869 15.8845 26.869 15.8659 26.869L14.7321 27.4638C14.6019 27.5382 14.5462 27.724 14.6391 27.8913L15.2153 28.988C15.3082 29.1553 15.4755 29.2296 15.6242 29.1553L16.7581 28.5605C16.7581 28.5605 16.851 28.4675 16.8696 28.3932L18.1893 27.7055C19.5834 28.2259 21.1076 28.7835 22.5946 29.3412L21.4793 29.9174C21.3492 29.9917 21.2935 30.1776 21.3864 30.3449L21.9626 31.4416C22.0556 31.6089 22.2229 31.6832 22.3716 31.6089L23.5054 31.0141C23.5054 31.0141 23.5984 30.9211 23.6169 30.8468L24.8994 30.1776C28.7099 31.5717 31.907 32.7427 32.0371 32.7241C32.316 32.6869 33.9702 31.7576 33.9702 31.7576C34.3606 31.5531 34.658 31.3486 34.6394 31.2929C34.6208 31.2557 34.1561 31.4416 33.7844 31.646L27.0742 27.5939C27.3716 27.4081 27.5761 27.2222 27.5203 27.1478C27.4645 27.0549 27.1114 27.1478 26.7211 27.3337H26.6839L25.3641 26.553C25.6429 26.3857 25.8288 26.1999 25.7917 26.1069C25.7359 26.014 25.3828 26.1069 24.9924 26.2928L23.7842 25.5679L23.115 24.8616C23.4682 24.6571 23.7099 24.4526 23.6541 24.3597C23.5983 24.2667 23.2452 24.3597 22.8548 24.5456H22.8362L21.4979 23.1329C21.8511 22.947 22.0928 22.724 22.037 22.631C21.9812 22.5381 21.6281 22.631 21.2377 22.8169L20.0109 21.5158C22.8363 20.0102 23.9329 19.3782 26.0333 18.2815C28.1523 17.1849 30.104 15.9767 31.7211 14.8614C33.8029 15.6235 37.9108 17.1663 37.9108 17.1663L39.1376 16.6458L35.2156 12.1662C35.5502 11.8688 35.7918 11.6272 35.9591 11.4413C36.7955 10.9208 37.316 10.5677 37.2603 10.4747C37.2231 10.3818 36.6468 10.5863 35.7732 10.9766C35.513 11.0138 35.1599 11.0881 34.6952 11.2182L33.2453 5.38172L32.1115 6.08804C32.1115 6.08804 30.9591 10.642 30.4014 12.7052C28.6356 13.3744 26.6281 14.2108 24.5091 15.1216C21.8883 16.4785 20.7172 17.0548 18.3009 18.2815L17.9291 16.5343C18.3194 16.3298 18.5983 16.0696 18.5425 15.9767C18.4867 15.8837 18.1707 15.9767 17.8176 16.1254L17.4086 14.2108H17.4272C17.8176 13.9878 18.0964 13.7461 18.0407 13.6532C17.9849 13.5603 17.6689 13.6532 17.3157 13.8205L17.1113 12.8725L17.2042 11.4599C17.5945 11.2554 17.8733 10.9952 17.8176 10.9022C17.7804 10.8279 17.5202 10.8651 17.2042 10.9952L17.2971 9.45241H17.3343C17.7247 9.22936 18.0035 8.98771 17.9477 8.87619C17.9105 8.80184 17.6317 8.83902 17.3157 8.98772L17.8176 1.16233C18.1893 0.957866 18.6169 0.697632 18.5983 0.660456C18.5797 0.623281 18.2451 0.734814 17.8362 0.957865C17.8362 0.957865 16.1261 1.77572 15.9402 1.99877C15.8659 2.09171 14.9923 5.38172 13.9514 9.30371L12.6688 9.97286C12.6688 9.97286 12.5387 9.95428 12.4644 9.97286L11.3305 10.5677C11.2004 10.642 11.1446 10.8279 11.2376 10.9952L11.8138 12.0919C11.9067 12.2591 12.074 12.3335 12.2227 12.2591L13.338 11.6829C12.9291 13.2257 12.5201 14.7871 12.1484 16.2369L10.8286 16.9246C10.8286 16.9246 10.6985 16.906 10.6242 16.9246L9.49034 17.5194C9.36022 17.5938 9.30443 17.7797 9.39737 17.947L9.97358 19.0436C10.0665 19.2109 10.2338 19.2853 10.3825 19.2109L11.5164 18.6161C11.5164 18.6161 11.535 18.5789 11.5535 18.5603C11.126 20.2332 10.7729 21.553 10.6056 22.2035C10.2339 22.3894 9.86207 22.5939 9.47173 22.7983L9.52749 22.8355Z" fill="#FF5722"/>
</svg>
