<svg width="18" height="26" viewBox="0 0 18 26" fill="none" xmlns="http://www.w3.org/2000/svg">
<g id="Group">
<path id="Vector" d="M17.2668 9.39961C17.2668 4.7217 13.4734 0.928345 8.79552 0.928345C4.11762 0.928345 0.32427 4.7217 0.32427 9.39961C0.32427 9.39961 -0.0584759 12.3424 3.29261 17.1224C4.79804 19.2742 8.79552 25.6617 8.79552 25.6617C8.79552 25.6617 12.793 19.2742 14.2984 17.1224C17.6495 12.3424 17.2668 9.39961 17.2668 9.39961ZM8.79552 15.7275C5.38491 15.7275 2.62071 12.9633 2.62071 9.5527C2.62071 6.14209 5.38491 3.37787 8.79552 3.37787C12.2061 3.37787 14.9704 6.14209 14.9704 9.5527C14.9704 12.9633 12.2061 15.7275 8.79552 15.7275Z" fill="#FF5722"/>
</g>
</svg>
