<svg width="128" height="221" viewBox="0 0 128 221" fill="none" xmlns="http://www.w3.org/2000/svg">
<path id="Vector" d="M33.5746 20.7366C32.1247 19.7329 30.6563 18.7292 29.1693 17.744C28.7604 17.4652 28.6302 16.9076 28.9091 16.4986C29.1879 16.0897 29.7455 15.9596 30.1545 16.2384C31.6601 17.2236 33.147 18.2273 34.5969 19.2496C35.0058 19.5284 35.1174 20.1046 34.82 20.5136C34.6527 20.7738 34.3552 20.9039 34.0764 20.9039C33.8905 20.9039 33.7233 20.8482 33.556 20.7366H33.5746ZM25.6562 13.3202C24.1506 12.3722 22.6265 11.4242 21.0837 10.4948C20.6562 10.2346 20.0986 10.3647 19.8383 10.8108C19.5781 11.2384 19.7268 11.796 20.1543 12.0562C21.6785 12.9856 23.2027 13.915 24.6897 14.8629C24.8384 14.9559 25.0057 15.0116 25.173 15.0116C25.4704 15.0116 25.7678 14.8629 25.9351 14.5841C26.1953 14.1566 26.0837 13.599 25.6562 13.3388V13.3202ZM59.2255 40.867C59.4671 40.867 59.7088 40.7741 59.8947 40.5696C60.2292 40.1979 60.2107 39.6217 59.8389 39.2871C58.5192 38.0975 57.1809 36.9079 55.824 35.7183C55.4522 35.3837 54.876 35.4394 54.5414 35.8112C54.2068 36.1829 54.2626 36.7592 54.6343 37.0937C55.9912 38.2648 57.311 39.4544 58.6121 40.644C58.7794 40.8113 59.0024 40.8856 59.2255 40.8856V40.867ZM52.2923 204.661C50.8239 203.732 49.3369 202.765 47.8313 201.762C47.4224 201.483 46.8647 201.594 46.5673 202.003C46.2885 202.412 46.4 202.97 46.809 203.267C48.3331 204.289 49.8388 205.275 51.3072 206.204C51.4559 206.297 51.6231 206.334 51.7904 206.334C52.0878 206.334 52.3852 206.185 52.5525 205.907C52.8128 205.479 52.6827 204.921 52.2737 204.661H52.2923ZM16.4554 7.79964C14.9126 6.90743 13.3512 6.03381 11.7713 5.17878C11.3252 4.93714 10.7862 5.10443 10.5445 5.53195C10.3029 5.97805 10.4701 6.51709 10.8976 6.75873C12.459 7.61376 14.0204 8.48738 15.5445 9.361C15.6932 9.43535 15.842 9.47252 15.9907 9.47252C16.3067 9.47252 16.6041 9.30524 16.7713 9.02642C17.013 8.59891 16.8643 8.04128 16.4368 7.79964H16.4554ZM51.1399 33.8595C51.4001 33.8595 51.6604 33.748 51.8276 33.5249C52.1436 33.1346 52.0879 32.5769 51.7161 32.261C50.3406 31.1271 48.9651 29.9933 47.5524 28.878C47.1621 28.5806 46.5859 28.6364 46.2885 29.0267C45.9725 29.417 46.0469 29.9933 46.4372 30.2907C47.8313 31.4059 49.2068 32.5212 50.5822 33.655C50.7495 33.8037 50.954 33.8595 51.1585 33.8595H51.1399ZM39.188 195.535C38.7977 195.237 38.2215 195.312 37.9241 195.702C37.6267 196.092 37.701 196.669 38.0914 196.966C39.5412 198.081 40.991 199.141 42.4037 200.163C42.571 200.275 42.7569 200.33 42.9241 200.33C43.203 200.33 43.4818 200.2 43.6491 199.959C43.9465 199.55 43.8535 198.992 43.4446 198.695C42.0319 197.672 40.6007 196.613 39.1695 195.516L39.188 195.535ZM42.1993 27.0192C42.3665 27.1494 42.5524 27.2051 42.7383 27.2051C43.0171 27.2051 43.2773 27.075 43.4632 26.852C43.7606 26.4616 43.6863 25.8854 43.2959 25.588C41.8833 24.5099 40.4334 23.4504 38.9836 22.3909C38.5932 22.0935 38.017 22.1865 37.7196 22.5954C37.4222 23.0043 37.5151 23.5619 37.9241 23.8593C39.3739 24.9003 40.8052 25.9598 42.1993 27.0378V27.0192ZM30.8608 188.862C30.4705 188.546 29.9128 188.583 29.5782 188.973C29.2623 189.364 29.2994 189.921 29.6898 190.256C31.0838 191.427 32.4779 192.561 33.8348 193.657C34.0021 193.787 34.2066 193.862 34.3924 193.862C34.6527 193.862 34.9129 193.75 35.0988 193.527C35.4148 193.137 35.3404 192.561 34.95 192.263C33.5931 191.167 32.2177 190.051 30.8236 188.88L30.8608 188.862ZM122.498 143.229C122.925 144.976 123.316 146.705 123.669 148.415C123.762 148.843 124.134 149.14 124.561 149.14C124.617 149.14 124.691 149.14 124.747 149.14C125.23 149.047 125.546 148.564 125.453 148.08C125.1 146.352 124.71 144.586 124.282 142.82C124.171 142.337 123.687 142.039 123.186 142.151C122.702 142.263 122.405 142.764 122.516 143.248L122.498 143.229ZM124.635 153.657C124.933 155.423 125.174 157.188 125.397 158.917C125.453 159.382 125.844 159.716 126.29 159.716C126.327 159.716 126.364 159.716 126.401 159.716C126.903 159.661 127.256 159.214 127.182 158.713C126.977 156.947 126.717 155.181 126.42 153.378C126.345 152.895 125.862 152.541 125.379 152.634C124.877 152.709 124.561 153.173 124.635 153.675V153.657ZM7.01283 2.63228C5.43288 1.81442 3.83437 0.996566 2.21725 0.197298C1.77115 -0.025754 1.23212 0.160123 1.00906 0.606226C0.786013 1.05233 0.971892 1.59137 1.41799 1.81442C3.01653 2.61369 4.61506 3.41296 6.17642 4.23081C6.30654 4.30516 6.45524 4.32375 6.58535 4.32375C6.90134 4.32375 7.21732 4.13788 7.38461 3.84047C7.60766 3.39437 7.44039 2.85533 6.99428 2.61369L7.01283 2.63228ZM119.635 132.969C120.174 134.679 120.676 136.389 121.159 138.08C121.271 138.471 121.643 138.731 122.033 138.731C122.107 138.731 122.2 138.731 122.275 138.694C122.758 138.564 123.037 138.062 122.907 137.578C122.423 135.868 121.922 134.158 121.364 132.43C121.215 131.946 120.713 131.686 120.23 131.835C119.747 131.984 119.487 132.485 119.635 132.969ZM125.918 164.196C126.048 165.98 126.141 167.765 126.197 169.493C126.197 169.977 126.606 170.367 127.108 170.367H127.126C127.628 170.367 128.018 169.94 128 169.438C127.944 167.672 127.851 165.869 127.721 164.047C127.684 163.545 127.238 163.174 126.754 163.211C126.253 163.248 125.881 163.675 125.918 164.177V164.196ZM117.944 127.931C118.074 128.303 118.427 128.545 118.799 128.545C118.892 128.545 119.003 128.545 119.096 128.489C119.561 128.322 119.821 127.801 119.654 127.337C119.078 125.664 118.446 123.972 117.795 122.281C117.609 121.816 117.089 121.575 116.624 121.76C116.159 121.946 115.918 122.467 116.104 122.931C116.754 124.604 117.349 126.277 117.944 127.931ZM99.4863 89.6038C99.6536 89.8826 99.951 90.0313 100.248 90.0313C100.416 90.0313 100.583 89.9941 100.732 89.9012C101.159 89.641 101.289 89.0833 101.029 88.6558C100.1 87.1502 99.1331 85.626 98.148 84.1204C97.8692 83.6929 97.3116 83.5814 96.9026 83.8602C96.4751 84.139 96.3636 84.6967 96.6424 85.1056C97.6275 86.6112 98.5755 88.0982 99.5049 89.6038H99.4863ZM109.765 108.284C109.914 108.6 110.249 108.786 110.583 108.786C110.713 108.786 110.843 108.749 110.973 108.693C111.42 108.47 111.605 107.931 111.401 107.485C110.62 105.887 109.821 104.288 109.003 102.671C108.78 102.225 108.223 102.058 107.776 102.281C107.33 102.504 107.163 103.061 107.386 103.507C108.204 105.106 109.003 106.686 109.765 108.266V108.284ZM91.6423 218.769C89.9508 218.769 88.2036 218.639 86.4192 218.416C85.9359 218.36 85.4713 218.713 85.4155 219.197C85.3597 219.699 85.7129 220.145 86.1961 220.2C88.0549 220.424 89.8765 220.554 91.6423 220.554C92.1442 220.554 92.5531 220.145 92.5531 219.661C92.5531 219.16 92.1628 218.751 91.6609 218.751L91.6423 218.769ZM61.5118 209.977C59.9876 209.178 58.4262 208.323 56.8649 207.412C56.4374 207.171 55.8797 207.319 55.6381 207.747C55.3964 208.174 55.5451 208.732 55.9726 208.974C57.5712 209.903 59.1511 210.758 60.6939 211.576C60.824 211.65 60.9727 211.669 61.1028 211.669C61.4188 211.669 61.7348 211.483 61.9021 211.185C62.1251 210.739 61.9579 210.2 61.5118 209.959V209.977ZM111.085 212.598C109.71 213.658 108.26 214.587 106.717 215.386C106.271 215.609 106.104 216.167 106.327 216.613C106.494 216.929 106.81 217.096 107.126 217.096C107.275 217.096 107.405 217.059 107.535 217.003C109.152 216.167 110.732 215.163 112.182 214.048C112.572 213.751 112.646 213.174 112.349 212.784C112.033 212.394 111.475 212.319 111.085 212.617V212.598ZM115.323 118.489C115.788 118.303 116.011 117.764 115.806 117.299C115.118 115.664 114.412 114.009 113.669 112.374C113.464 111.928 112.925 111.723 112.479 111.928C112.014 112.132 111.828 112.671 112.033 113.117C112.776 114.753 113.483 116.37 114.152 118.006C114.301 118.359 114.635 118.563 114.988 118.563C115.1 118.563 115.23 118.545 115.342 118.489H115.323ZM106.457 97.9496C105.602 96.3883 104.709 94.8269 103.799 93.2655C103.557 92.838 102.999 92.6893 102.572 92.9496C102.144 93.2098 101.996 93.7488 102.256 94.1763C103.167 95.7191 104.04 97.2619 104.877 98.8233C105.044 99.1207 105.341 99.2879 105.676 99.2879C105.825 99.2879 105.973 99.2508 106.103 99.1764C106.55 98.9348 106.698 98.3772 106.457 97.9496ZM123.836 195.014C123.353 194.847 122.851 195.089 122.684 195.572C122.089 197.263 121.42 198.88 120.676 200.423C120.453 200.869 120.639 201.408 121.104 201.631C121.234 201.687 121.364 201.724 121.494 201.724C121.829 201.724 122.145 201.538 122.312 201.222C123.093 199.624 123.78 197.932 124.394 196.185C124.561 195.721 124.319 195.2 123.836 195.033V195.014ZM127.145 173.936C126.606 173.917 126.234 174.308 126.215 174.809C126.16 176.612 126.067 178.378 125.899 180.088C125.862 180.59 126.215 181.018 126.717 181.074C126.736 181.074 126.773 181.074 126.792 181.074C127.256 181.074 127.647 180.72 127.684 180.256C127.851 178.508 127.944 176.687 128 174.865C128 174.363 127.628 173.954 127.126 173.936H127.145ZM101.94 217.319C100.323 217.821 98.6127 218.193 96.8654 218.435C96.3636 218.509 96.029 218.955 96.0848 219.457C96.1405 219.903 96.5309 220.238 96.977 220.238C97.0142 220.238 97.0513 220.238 97.1071 220.238C98.9473 219.977 100.769 219.587 102.479 219.067C102.962 218.918 103.222 218.416 103.074 217.933C102.925 217.449 102.423 217.189 101.94 217.338V217.319ZM126.29 184.587C125.806 184.512 125.323 184.847 125.249 185.33C124.97 187.096 124.598 188.843 124.189 190.497C124.059 190.981 124.357 191.464 124.84 191.594C124.914 191.594 124.989 191.613 125.063 191.613C125.472 191.613 125.844 191.334 125.937 190.925C126.364 189.215 126.717 187.43 127.015 185.609C127.089 185.107 126.754 184.642 126.271 184.568L126.29 184.587ZM119.356 204.68C118.948 204.401 118.371 204.512 118.111 204.94C117.145 206.408 116.066 207.803 114.933 209.048C114.598 209.42 114.617 209.996 114.988 210.33C115.156 210.479 115.379 210.572 115.602 210.572C115.843 210.572 116.085 210.479 116.271 210.275C117.479 208.955 118.613 207.487 119.635 205.944C119.914 205.535 119.803 204.959 119.375 204.698L119.356 204.68ZM75.0993 54.436C73.8911 53.1163 72.6644 51.8151 71.419 50.514C71.0658 50.1608 70.5082 50.1423 70.1365 50.4954C69.7833 50.8486 69.7647 51.4062 70.1179 51.778C71.3632 53.0605 72.5714 54.3616 73.761 55.6628C73.9469 55.8487 74.1886 55.9602 74.4302 55.9602C74.6533 55.9602 74.8763 55.8858 75.0436 55.7185C75.4153 55.384 75.4339 54.8078 75.0993 54.436ZM71.1774 214.345C69.5788 213.713 67.9431 213.026 66.3074 212.282C65.8613 212.078 65.3222 212.282 65.0992 212.728C64.8947 213.174 65.0992 213.713 65.5453 213.918C67.2182 214.68 68.8911 215.386 70.5268 216.037C70.6383 216.074 70.7498 216.093 70.8614 216.093C71.2145 216.093 71.5677 215.87 71.6978 215.516C71.8837 215.052 71.6421 214.531 71.1774 214.345ZM67.0137 48.2277C67.2367 48.2277 67.4784 48.1348 67.6457 47.9675C67.9988 47.6143 67.9988 47.0381 67.6457 46.685C66.3817 45.421 65.0992 44.1756 63.7981 42.9303C63.4449 42.5771 62.8687 42.5957 62.5155 42.9674C62.1624 43.3206 62.1809 43.8968 62.5527 44.25C63.8538 45.4768 65.1178 46.7221 66.3817 47.9675C66.549 48.1348 66.7906 48.2277 67.0137 48.2277ZM92.0884 75.2355C91.791 74.8266 91.2334 74.7337 90.8244 75.0311C90.4155 75.3285 90.3226 75.8861 90.62 76.295C91.6609 77.7449 92.7018 79.1947 93.687 80.6445C93.8542 80.9048 94.1516 81.0349 94.4305 81.0349C94.6163 81.0349 94.7836 80.9791 94.9509 80.8676C95.3598 80.5888 95.4714 80.0126 95.174 79.6036C94.1703 78.1352 93.1293 76.6668 92.0698 75.217L92.0884 75.2355ZM88.1664 72.3731C88.3523 72.3731 88.5568 72.3173 88.7055 72.1872C89.0958 71.8898 89.1888 71.3136 88.8728 70.9232C87.7947 69.5106 86.698 68.0979 85.5642 66.6852C85.2482 66.2949 84.6906 66.2391 84.3002 66.5365C83.9099 66.8525 83.8541 67.4102 84.1515 67.8005C85.2668 69.1946 86.3634 70.6072 87.4229 72.0013C87.6088 72.2429 87.8691 72.3545 88.1479 72.3545L88.1664 72.3731ZM81.2704 217.487C79.6161 217.115 77.9061 216.65 76.1774 216.111C75.6942 215.962 75.1923 216.223 75.0436 216.706C74.8949 217.189 75.1551 217.691 75.6384 217.84C77.4042 218.397 79.17 218.862 80.8801 219.253C80.9545 219.253 81.0102 219.271 81.0845 219.271C81.4935 219.271 81.8652 218.992 81.9582 218.565C82.0697 218.081 81.7537 217.598 81.2704 217.487ZM78.6867 58.4323C78.3521 58.0606 77.7759 58.0234 77.4042 58.358C77.0324 58.6926 76.9953 59.2502 77.3299 59.6405C78.5009 60.9788 79.6719 62.3357 80.8057 63.6926C80.9916 63.9157 81.2332 64.0086 81.4935 64.0086C81.6979 64.0086 81.9024 63.9343 82.0697 63.8042C82.46 63.4882 82.4972 62.9119 82.1812 62.5216C81.0474 61.1461 79.8763 59.7892 78.6867 58.4323Z" fill="#FF5722"/>
</svg>
